<mxfile host="app.diagrams.net" modified="2023-01-16T16:23:06.949Z" agent="5.0 (X11; Linux x86_64) AppleWebKit/537.36 (KHTML, like Gecko) Chrome/108.0.0.0 Safari/537.36" etag="mu5EygUrAkcUWGZQ1aOV" version="20.8.5" type="github">
  <diagram name="Page-1" id="c9db0220-8083-56f3-ca83-edcdcd058819">
    <mxGraphModel dx="1120" dy="485" grid="1" gridSize="10" guides="1" tooltips="1" connect="1" arrows="1" fold="1" page="1" pageScale="1.5" pageWidth="826" pageHeight="1169" background="none" math="0" shadow="0">
      <root>
        <mxCell id="0" style=";html=1;" />
        <mxCell id="1" style=";html=1;" parent="0" />
      </root>
    </mxGraphModel>
  </diagram>
</mxfile>
